<svg id="Group_2" data-name="Group 2" xmlns="http://www.w3.org/2000/svg" width="512" height="512" viewBox="0 0 512 512">
  <g id="Group_1" data-name="Group 1">
    <path id="Path_1" data-name="Path 1" d="M256,0C114.615,0,0,114.615,0,256S114.615,512,256,512,512,397.385,512,256,397.385,0,256,0Zm0,480C132.288,480,32,379.712,32,256S132.288,32,256,32,480,132.288,480,256,379.712,480,256,480Z" fill="#fff"/>
    <path id="Path_2" data-name="Path 2" d="M292.64,116.8l-128,128a16,16,0,0,0,0,22.56l128,128,22.56-22.72L198.56,256,315.2,139.36Z" fill="#fff"/>
  </g>
</svg>
