<svg id="Capa_1" enable-background="new 0 0 511.814 511.814" height="512" viewBox="0 0 511.814 511.814" width="512" xmlns="http://www.w3.org/2000/svg"><g><g><path d="m128.848 7.5c-21.86 0-39.582 17.721-39.582 39.582v6.181 13.392h79.163v-13.392-6.181c.001-21.861-17.721-39.582-39.581-39.582z" fill="#cbc4cc"/><g><path d="m89.267 47.082v6.181 13.392h79.163v-13.392-6.181c0-4.862-.881-9.516-2.484-13.819h-74.195c-1.604 4.302-2.484 8.957-2.484 13.819z" fill="#b5adb6"/><path d="m439.015 504.314h-366.216c-17.429 0-31.557-14.129-31.557-31.557v-387.937c0-17.429 14.129-31.557 31.557-31.557h366.216c17.429 0 31.557 14.129 31.557 31.557v387.936c0 17.429-14.128 31.558-31.557 31.558z" fill="#e5e1e5"/><g><path d="m431.007 97.298c12.76 121.02 12.76 242.05-.01 363.08-.25 2.3-2.06 4.13-4.36 4.39-110.62 12.73-224.43 12.73-341.43-.02-2.31-.25-4.14-2.08-4.39-4.4-12.81-120.64-12.73-241.66 0-363.05.24-2.34 2.12-4.2 4.46-4.41 113.54-10.52 227.29-10.48 341.26 0 2.34.22 4.22 2.07 4.47 4.41z" fill="#b5adb6"/></g><circle cx="138.916" cy="415.458" fill="#b5adb6" r="35.069"/><circle cx="138.916" cy="415.459" fill="#e5e1e5" r="25.069"/><circle cx="372.898" cy="415.458" fill="#b5adb6" r="35.069"/><circle cx="372.898" cy="415.459" fill="#e5e1e5" r="25.069"/><path d="m130.977 415.458c0-10.837 6.887-20.069 16.514-23.569-2.673-.972-5.567-1.5-8.576-1.5-13.845 0-25.069 11.224-25.069 25.069s11.224 25.069 25.069 25.069c3.009 0 5.903-.529 8.576-1.501-9.627-3.499-16.514-12.731-16.514-23.568z" fill="#cbc4cc"/><path d="m364.96 415.458c0-10.837 6.89-20.068 16.517-23.568-2.673-.972-5.57-1.501-8.579-1.501-13.845 0-25.069 11.224-25.069 25.069s11.224 25.069 25.069 25.069c3.009 0 5.9-.532 8.573-1.504-9.627-3.499-16.511-12.728-16.511-23.565z" fill="#cbc4cc"/><g id="XMLID_196_"><g><path d="m323.487 119.978c-15.47-2.26-30.93-3.75-46.38-4.46l-16.922 29.371v207.181l16.922 23.287c15.46-.76 30.93-2.35 46.43-4.75l12.57-27.422v-181.266z" fill="#a274bf"/><path d="m391.267 138.438c-1.03-2.61-3.21-4.61-5.92-5.37-5.16-1.43-10.32-2.78-15.48-4.04l-22.038 21.713v196.797l22.078 13.45c5.05-1.31 10.11-2.71 15.16-4.19 2.82-.83 5.06-3.01 5.96-5.82 23.77-74.56 26.66-145.85.24-212.54z" fill="#0573ce"/><path d="m369.907 360.988c-15.48 4.02-30.93 7.23-46.37 9.62l-.05-250.63c15.45 2.25 30.91 5.27 46.38 9.05z" fill="#fe646f"/><path d="m234.707 115.488c-15.48.7-30.94 2.17-46.39 4.42l-16.199 39.401v174.231l16.15 37.178c15.46 2.39 30.94 3.95 46.44 4.68l17.247-35.753v-210.647z" fill="#a6e7f0"/><path d="m277.107 115.518v259.84c-14.15.71-28.28.72-42.4.04v-259.91c14.12-.64 28.25-.63 42.4.03z" fill="#97da7b"/><path d="m141.937 128.998c-5.17 1.26-10.33 2.62-15.49 4.07-2.7.75-4.86 2.75-5.89 5.36-26.41 66.7-23.53 138 .24 212.57.89 2.8 3.12 4.98 5.93 5.81 5.05 1.5 10.11 2.92 15.16 4.25l22.098-47.948v-168.881z" fill="#efedef"/><path d="m188.267 370.718c-15.48-2.39-30.94-5.61-46.38-9.66l.05-232.06c15.45-3.81 30.91-6.84 46.38-9.09z" fill="#fee903"/></g></g></g></g><g><path d="m439.015 45.763h-22.922c-4.143 0-7.5 3.358-7.5 7.5s3.357 7.5 7.5 7.5h22.922c13.265 0 24.057 10.792 24.057 24.057v387.937c0 13.265-10.792 24.058-24.057 24.058h-366.216c-13.265 0-24.057-10.792-24.057-24.058v-47.962c0-4.142-3.357-7.5-7.5-7.5s-7.5 3.358-7.5 7.5v47.962c0 21.537 17.521 39.058 39.057 39.058h366.217c21.536 0 39.057-17.521 39.057-39.058v-387.937c-.001-21.536-17.521-39.057-39.058-39.057z"/><path d="m41.242 400.332c4.143 0 7.5-3.358 7.5-7.5v-308.012c0-13.265 10.792-24.057 24.057-24.057h311.333c4.143 0 7.5-3.358 7.5-7.5s-3.357-7.5-7.5-7.5h-208.227c-.253-9.135-3.118-17.626-7.877-24.754h281.224c4.143 0 7.5-3.358 7.5-7.5s-3.357-7.5-7.5-7.5h-297.428c-6.801-3.82-14.636-6.009-22.976-6.009-25.518 0-46.346 20.411-47.048 45.763h-9.001c-21.536 0-39.057 17.521-39.057 39.057v308.012c0 4.142 3.357 7.5 7.5 7.5zm87.606-385.332c17.247 0 31.353 13.683 32.048 30.763h-64.096c.695-17.08 14.8-30.763 32.048-30.763z"/><path d="m398.239 135.676c-1.897-4.79-5.966-8.465-10.883-9.831-87.649-24.332-176.113-24.333-262.931-.002-4.899 1.372-8.954 5.044-10.847 9.823-13.163 33.249-19.629 68.973-19.219 106.178.386 34.988 6.877 72.48 19.293 111.434 1.646 5.167 5.732 9.175 10.929 10.722 43.25 12.881 86.956 19.321 130.824 19.321s87.898-6.442 131.771-19.324c5.227-1.534 9.335-5.548 10.99-10.737 12.421-38.949 18.915-76.436 19.301-111.418.411-37.203-6.058-72.922-19.228-106.166zm-67.397-6.921c10.417 1.698 20.83 3.747 31.233 6.151v220.305c-10.407 2.553-20.82 4.732-31.233 6.538zm-15 235.336c-10.413 1.447-20.825 2.521-31.232 3.22v-243.778c10.41.655 20.822 1.662 31.232 3.021zm-119.87-237.606c10.398-1.351 20.81-2.348 31.232-2.991v243.877c-10.425-.68-20.838-1.738-31.232-3.173zm-15 235.38c-10.433-1.808-20.846-3.997-31.233-6.568v-220.446c10.392-2.415 20.804-4.471 31.233-6.171zm-53.026-13.142c-24.786-77.759-24.923-145.645-.421-207.535.178-.448.531-.785.946-.901 2.088-.585 4.178-1.144 6.268-1.701v212.731c-1.96-.556-3.919-1.111-5.877-1.694-.43-.128-.78-.473-.916-.9zm114.259 19.368v-245.278c4.456-.129 8.913-.209 13.371-.209 4.677 0 9.354.084 14.033.226v245.234c-4.735.155-9.469.245-14.201.244-4.403.001-8.804-.083-13.203-.217zm141.672-19.391c-.137.429-.491.775-.925.902-1.959.575-3.918 1.123-5.877 1.671v-212.66c2.09.551 4.18 1.105 6.269 1.685.417.116.772.453.95.902 24.513 61.882 24.377 129.756-.417 207.5z"/><path d="m439.595 336.986c.075.002.15.003.225.003 4.04 0 7.373-3.214 7.493-7.279 2.28-77.417-.697-155.876-8.853-233.203-.622-5.884-5.35-10.547-11.241-11.089-114.097-10.486-229.375-10.487-342.629-.002-5.892.545-10.616 5.213-11.234 11.099-12.76 121.718-12.758 244.397.004 364.628.613 5.78 5.252 10.433 11.032 11.063 58.533 6.375 116.662 9.563 174.007 9.563 57.289 0 113.795-3.182 169.098-9.546 5.743-.661 10.35-5.314 10.955-11.062 3.468-32.866 6.031-66.292 7.619-99.349.199-4.137-2.994-7.652-7.131-7.851-4.174-.206-7.654 2.994-7.852 7.131-1.542 32.091-4.011 64.532-7.341 96.461-108.291 12.302-221.199 12.288-335.688-.038-12.362-117.848-12.364-238.057-.003-357.355 110.98-10.146 223.903-10.144 335.706.005 7.919 75.984 10.798 153.05 8.557 229.104-.122 4.14 3.136 7.595 7.276 7.717z"/><path d="m106.346 415.458c0 17.959 14.61 32.569 32.569 32.569s32.569-14.61 32.569-32.569-14.61-32.569-32.569-32.569-32.569 14.611-32.569 32.569zm50.139 0c0 9.688-7.882 17.569-17.569 17.569s-17.569-7.881-17.569-17.569 7.882-17.569 17.569-17.569 17.569 7.882 17.569 17.569z"/><path d="m372.898 382.889c-17.959 0-32.569 14.61-32.569 32.569s14.61 32.569 32.569 32.569 32.569-14.61 32.569-32.569-14.61-32.569-32.569-32.569zm0 50.139c-9.688 0-17.569-7.881-17.569-17.569s7.882-17.569 17.569-17.569 17.569 7.881 17.569 17.569-7.881 17.569-17.569 17.569z"/><path d="m231.276 408.813v31.714c0 4.142 3.357 7.5 7.5 7.5s7.5-3.358 7.5-7.5v-31.714c0-4.142-3.357-7.5-7.5-7.5s-7.5 3.358-7.5 7.5z"/><path d="m199.813 408.813v31.714c0 4.142 3.357 7.5 7.5 7.5s7.5-3.358 7.5-7.5v-31.714c0-4.142-3.357-7.5-7.5-7.5s-7.5 3.358-7.5 7.5z"/><path d="m265.538 408.813v31.714c0 4.142 3.357 7.5 7.5 7.5s7.5-3.358 7.5-7.5v-31.714c0-4.142-3.357-7.5-7.5-7.5s-7.5 3.358-7.5 7.5z"/><path d="m297.001 408.813v31.714c0 4.142 3.357 7.5 7.5 7.5s7.5-3.358 7.5-7.5v-31.714c0-4.142-3.357-7.5-7.5-7.5s-7.5 3.358-7.5 7.5z"/><path d="m173.878 444.124v1.198c0 4.142 3.357 7.5 7.5 7.5s7.5-3.358 7.5-7.5v-1.198c0-4.142-3.357-7.5-7.5-7.5s-7.5 3.357-7.5 7.5z"/></g></g></svg>